<svg width="120" height="120" viewBox="0 0 120 120" fill="none" xmlns="http://www.w3.org/2000/svg">
<circle cx="60" cy="60" r="60" fill="#5580DD"/>
<path d="M45.6453 22.625C47.8529 22.6009 50.0605 22.5824 52.2683 22.5711C53.2934 22.5657 54.3185 22.5583 55.3436 22.5466C56.3329 22.5353 57.3222 22.5291 58.3116 22.5264C58.689 22.5244 59.0664 22.5207 59.4438 22.5151C59.9726 22.5075 60.5011 22.5065 61.03 22.507C61.3309 22.5047 61.6318 22.5024 61.9419 22.5C62.8775 22.6514 63.1775 22.9196 63.7488 23.664C63.8882 24.2404 63.8882 24.2404 63.9104 24.833C63.9532 25.7978 64.0626 26.1129 64.5246 27.041C71.6936 27.1267 78.8625 27.2125 86.2488 27.3008C85.8416 29.7544 85.317 32.1673 84.6698 34.5672C84.6224 34.7442 84.575 34.9212 84.5262 35.1035C84.4111 35.5333 84.2955 35.963 84.1798 36.3927C81.3652 36.4228 78.5507 36.4458 75.736 36.46C74.429 36.4668 73.1221 36.476 71.8152 36.4907C70.5542 36.5048 69.2933 36.5125 68.0322 36.5159C67.5509 36.5183 67.0696 36.523 66.5882 36.53C65.9145 36.5394 65.2411 36.5407 64.5673 36.5401C64.2682 36.5471 64.2682 36.5471 63.963 36.5543C62.9667 36.5446 62.5461 36.4792 61.8127 35.7775C61.3722 35.0083 61.3099 34.5916 61.3565 33.7138C61.3658 33.4844 61.3752 33.2551 61.3848 33.0187C61.3968 32.8463 61.4088 32.6738 61.4212 32.4962C60.5208 31.9437 59.7951 31.9062 58.7498 31.8938C58.4185 31.8886 58.0872 31.8835 57.7459 31.8781C57.3856 31.8751 57.0253 31.872 56.665 31.8691C56.2954 31.8642 55.9257 31.8591 55.5561 31.8538C54.5851 31.8405 53.614 31.8302 52.6429 31.8205C51.6513 31.8101 50.6597 31.7968 49.6681 31.7838C47.7237 31.7587 45.7794 31.7368 43.835 31.7168C43.9671 29.654 44.3862 27.7115 44.8856 25.7097C44.9585 25.4117 45.0313 25.1137 45.1063 24.8066C45.2844 24.079 45.4641 23.3518 45.6453 22.625Z" fill="#FCFCFC"/>
<path d="M41.5076 41.8478C43.7152 41.8237 45.9228 41.8053 48.1306 41.794C49.1557 41.7885 50.1808 41.7812 51.2059 41.7694C52.1952 41.7581 53.1845 41.7519 54.1739 41.7492C54.5513 41.7473 54.9287 41.7435 55.3061 41.7379C55.8349 41.7304 56.3634 41.7293 56.8923 41.7298C57.1932 41.7275 57.4941 41.7252 57.8042 41.7228C58.7398 41.8742 59.0398 42.1424 59.6111 42.8869C59.7505 43.4632 59.7505 43.4632 59.7727 44.0558C59.8155 45.0206 59.9249 45.3358 60.3869 46.2639C67.5559 46.3496 74.7249 46.4353 82.1111 46.5236C81.7039 48.9772 81.1793 51.3902 80.5321 53.79C80.4847 53.967 80.4373 54.144 80.3885 54.3263C80.2734 54.7562 80.1578 55.1859 80.0421 55.6155C77.2275 55.6456 74.413 55.6687 71.5983 55.6828C70.2913 55.6896 68.9845 55.6988 67.6776 55.7135C66.4165 55.7276 65.1556 55.7354 63.8945 55.7387C63.4132 55.7412 62.9319 55.7458 62.4506 55.7528C61.7768 55.7623 61.1034 55.7636 60.4296 55.763C60.1305 55.77 60.1305 55.77 59.8253 55.7771C58.829 55.7675 58.4084 55.7021 57.6751 55.0003C57.2345 54.2311 57.1722 53.8144 57.2188 52.9367C57.2282 52.7073 57.2375 52.4779 57.2471 52.2416C57.2591 52.0691 57.2711 51.8967 57.2835 51.719C56.3831 51.1665 55.6574 51.129 54.6122 51.1166C54.2809 51.1115 53.9496 51.1063 53.6082 51.101C53.2479 51.0979 52.8876 51.0949 52.5273 51.0919C52.1577 51.087 51.788 51.0819 51.4184 51.0766C50.4474 51.0633 49.4763 51.053 48.5052 51.0434C47.5136 51.033 46.522 51.0197 45.5304 51.0067C43.586 50.9815 41.6417 50.9596 39.6973 50.9397C39.8294 48.8768 40.2485 46.9343 40.7479 44.9325C40.8208 44.6345 40.8936 44.3365 40.9686 44.0294C41.1467 43.3018 41.3264 42.5746 41.5076 41.8478Z" fill="#FCFCFC"/>
<path d="M35.5603 61.0707C37.768 61.0466 39.9756 61.0282 42.1833 61.0169C43.2085 61.0114 44.2335 61.0041 45.2586 60.9923C46.248 60.981 47.2373 60.9748 48.2267 60.9721C48.6041 60.9702 48.9815 60.9664 49.3588 60.9608C49.8877 60.9533 50.4161 60.9523 50.945 60.9527C51.2459 60.9504 51.5469 60.9481 51.8569 60.9457C52.7925 61.0971 53.0925 61.3653 53.6638 62.1098C53.8032 62.6861 53.8032 62.6861 53.8254 63.2787C53.8682 64.2435 53.9777 64.5587 54.4397 65.4868C61.6086 65.5725 68.7776 65.6582 76.1638 65.7465C75.7567 68.2001 75.232 70.6131 74.5848 73.0129C74.5374 73.1899 74.4901 73.3669 74.4412 73.5492C74.3261 73.9791 74.2105 74.4088 74.0948 74.8384C71.2803 74.8685 68.4657 74.8916 65.651 74.9057C64.344 74.9125 63.0372 74.9217 61.7303 74.9364C60.4693 74.9505 59.2084 74.9583 57.9473 74.9616C57.4659 74.9641 56.9846 74.9687 56.5033 74.9757C55.8295 74.9852 55.1562 74.9865 54.4823 74.9859C54.1832 74.9929 54.1832 74.9929 53.878 75C52.8817 74.9904 52.4611 74.925 51.7278 74.2232C51.2872 73.454 51.2249 73.0373 51.2716 72.1596C51.2809 71.9302 51.2902 71.7008 51.2998 71.4645C51.3118 71.292 51.3238 71.1196 51.3362 70.9419C50.4358 70.3894 49.7102 70.3519 48.6649 70.3395C48.3336 70.3344 48.0023 70.3292 47.6609 70.3239C47.3006 70.3208 46.9403 70.3178 46.58 70.3148C46.2104 70.3099 45.8408 70.3048 45.4712 70.2996C44.5001 70.2862 43.529 70.2759 42.5579 70.2663C41.5663 70.2559 40.5747 70.2426 39.5831 70.2296C37.6388 70.2044 35.6944 70.1825 33.75 70.1626C33.8822 68.0997 34.3013 66.1572 34.8006 64.1554C34.8735 63.8574 34.9463 63.5594 35.0214 63.2523C35.1995 62.5247 35.3791 61.7975 35.5603 61.0707Z" fill="#FCFCFC"/>
<g filter="url(#filter0_dn_35_174)">
<path d="M25.7393 97V86.2627H33.7007V88.0791H27.9072V90.4595H33.2979V92.2686H27.9072V95.1909H33.9058V97H25.7393ZM35.7661 97V86.2627H37.8755L42.27 93.4331V86.2627H44.2842V97H42.1089L37.7803 89.998V97H35.7661ZM46.0347 93.5063L48.144 93.3013C48.271 94.0093 48.5273 94.5293 48.9131 94.8613C49.3037 95.1934 49.8286 95.3594 50.4878 95.3594C51.186 95.3594 51.7109 95.2129 52.0625 94.9199C52.4189 94.6221 52.5972 94.2754 52.5972 93.8799C52.5972 93.626 52.5215 93.4111 52.3701 93.2354C52.2236 93.0547 51.9648 92.8984 51.5938 92.7666C51.3398 92.6787 50.7612 92.5225 49.8579 92.2979C48.6958 92.0098 47.8804 91.6558 47.4116 91.2358C46.7524 90.645 46.4229 89.9248 46.4229 89.0752C46.4229 88.5283 46.5767 88.0181 46.8843 87.5444C47.1968 87.0659 47.6436 86.7021 48.2246 86.4531C48.8105 86.2041 49.5161 86.0796 50.3413 86.0796C51.689 86.0796 52.7021 86.375 53.3809 86.9658C54.0645 87.5566 54.4233 88.3452 54.4575 89.3315L52.2896 89.4268C52.1968 88.875 51.9966 88.4795 51.689 88.2402C51.3862 87.9961 50.9297 87.874 50.3193 87.874C49.6895 87.874 49.1963 88.0034 48.8398 88.2622C48.6104 88.4282 48.4956 88.6504 48.4956 88.9287C48.4956 89.1826 48.603 89.3999 48.8179 89.5806C49.0913 89.8101 49.7554 90.0493 50.8101 90.2983C51.8647 90.5474 52.6436 90.8062 53.1465 91.0747C53.6543 91.3384 54.0498 91.7021 54.333 92.166C54.6211 92.625 54.7651 93.1938 54.7651 93.8726C54.7651 94.4878 54.5942 95.064 54.2524 95.6011C53.9106 96.1382 53.4272 96.5386 52.8022 96.8022C52.1772 97.061 51.3984 97.1904 50.4658 97.1904C49.1084 97.1904 48.0659 96.8779 47.3384 96.2529C46.6108 95.623 46.1763 94.7075 46.0347 93.5063ZM56.5889 97V86.2627H60.0679C61.3862 86.2627 62.2456 86.3164 62.646 86.4238C63.2612 86.585 63.7764 86.9365 64.1914 87.4785C64.6064 88.0156 64.814 88.7114 64.814 89.5659C64.814 90.2251 64.6943 90.7793 64.4551 91.2285C64.2158 91.6777 63.9106 92.0317 63.5396 92.2905C63.1733 92.5444 62.7998 92.7129 62.4189 92.7959C61.9014 92.8984 61.1519 92.9497 60.1704 92.9497H58.7568V97H56.5889ZM58.7568 88.0791V91.126H59.9434C60.7979 91.126 61.3691 91.0698 61.6572 90.9575C61.9453 90.8452 62.1699 90.6694 62.3311 90.4302C62.4971 90.1909 62.5801 89.9126 62.5801 89.5952C62.5801 89.2046 62.4653 88.8823 62.2358 88.6284C62.0063 88.3745 61.7158 88.2158 61.3643 88.1523C61.1055 88.1035 60.5854 88.0791 59.8042 88.0791H58.7568ZM69.4136 97V92.481L65.4805 86.2627H68.022L70.5488 90.5107L73.0244 86.2627H75.522L71.5742 92.4956V97H69.4136ZM76.606 97V86.2627H81.1689C82.3164 86.2627 83.1489 86.3604 83.6665 86.5557C84.189 86.7461 84.6064 87.0879 84.9189 87.5811C85.2314 88.0742 85.3877 88.6382 85.3877 89.2729C85.3877 90.0786 85.1509 90.7451 84.6772 91.2725C84.2036 91.7949 83.4956 92.1245 82.5532 92.2612C83.022 92.5347 83.4077 92.835 83.7104 93.1621C84.0181 93.4893 84.4307 94.0703 84.9482 94.9053L86.2593 97H83.6665L82.0991 94.6636C81.5425 93.8286 81.1616 93.3037 80.9565 93.0889C80.7515 92.8691 80.5342 92.7202 80.3047 92.6421C80.0752 92.5591 79.7114 92.5176 79.2134 92.5176H78.7739V97H76.606ZM78.7739 90.8037H80.3779C81.418 90.8037 82.0674 90.7598 82.3262 90.6719C82.585 90.584 82.7876 90.4326 82.9341 90.2178C83.0806 90.0029 83.1538 89.7344 83.1538 89.4121C83.1538 89.0508 83.0562 88.7603 82.8608 88.5405C82.6704 88.3159 82.3994 88.1743 82.0479 88.1157C81.8721 88.0913 81.3447 88.0791 80.4658 88.0791H78.7739V90.8037ZM87.4385 97V86.2627H95.3999V88.0791H89.6064V90.4595H94.9971V92.2686H89.6064V95.1909H95.605V97H87.4385Z" fill="white"/>
</g>
<defs>
<filter id="filter0_dn_35_174" x="25.7393" y="86.0796" width="77.8662" height="19.1108" filterUnits="userSpaceOnUse" color-interpolation-filters="sRGB">
<feFlood flood-opacity="0" result="BackgroundImageFix"/>
<feColorMatrix in="SourceAlpha" type="matrix" values="0 0 0 0 0 0 0 0 0 0 0 0 0 0 0 0 0 0 127 0" result="hardAlpha"/>
<feOffset dx="5" dy="5"/>
<feGaussianBlur stdDeviation="1.5"/>
<feComposite in2="hardAlpha" operator="out"/>
<feColorMatrix type="matrix" values="0 0 0 0 0 0 0 0 0 0 0 0 0 0 0 0 0 0 0.25 0"/>
<feBlend mode="normal" in2="BackgroundImageFix" result="effect1_dropShadow_35_174"/>
<feBlend mode="normal" in="SourceGraphic" in2="BackgroundImageFix" result="shape"/>
<feTurbulence type="fractalNoise" baseFrequency="100 100" stitchTiles="stitch" numOctaves="3" result="noise" seed="5731" />
<feColorMatrix in="noise" type="luminanceToAlpha" result="alphaNoise" />
<feComponentTransfer in="alphaNoise" result="coloredNoise1">
<feFuncA type="discrete" tableValues="1 1 1 1 1 1 1 1 1 1 1 1 1 1 1 1 1 1 1 1 1 1 1 1 1 1 1 1 1 1 1 1 1 1 1 1 1 1 1 1 1 1 1 1 1 1 1 1 1 1 1 0 0 0 0 0 0 0 0 0 0 0 0 0 0 0 0 0 0 0 0 0 0 0 0 0 0 0 0 0 0 0 0 0 0 0 0 0 0 0 0 0 0 0 0 0 0 0 0 0 "/>
</feComponentTransfer>
<feComposite operator="in" in2="shape" in="coloredNoise1" result="noise1Clipped" />
<feFlood flood-color="rgba(0, 0, 0, 0.25)" result="color1Flood" />
<feComposite operator="in" in2="noise1Clipped" in="color1Flood" result="color1" />
<feMerge result="effect2_noise_35_174">
<feMergeNode in="shape" />
<feMergeNode in="color1" />
</feMerge>
<feBlend mode="normal" in="effect2_noise_35_174" in2="effect1_dropShadow_35_174" result="effect2_noise_35_174"/>
</filter>
</defs>
</svg>
